<svg xmlns="http://www.w3.org/2000/svg" viewBox="0 0 64 64">
  <rect width="64" height="64" rx="14" fill="#7360F2"/>
  <path d="M37.4 18.2c-0.4 0-1 0.1-1.6 0.3-0.5 0.2-1.5 0.8-2.1 1.1-0.5 0.2-0.8 0.3-1 0.3-0.3 0-0.7-0.1-1.4-0.5-0.7-0.4-1.3-0.6-1.9-0.6-0.5 0-1.1 0.1-1.7 0.4-0.6 0.2-1 0.4-1.4 0.7-0.5 0.3-1.3 1.2-1.3 2.8 0 1.5 0.3 2.5 1.2 3.4 0.9 0.9 1.5 1.4 2.2 1.8 0.7 0.4 1.6 0.8 2 1 0.4 0.2 0.9 0.4 2.2 0.7 1.3 0.3 2 0.5 2.8 0.9 0.8 0.3 2.2 1 3.5 2.6 1.3 1.6 1.9 3.2 1.9 4.7 0 1.6-0.6 2.4-1.2 2.9-0.6 0.5-1.1 0.7-1.6 0.7-0.5 0-1.6-0.2-3.2-1.1-1.6-0.8-3.5-2.1-5.4-4.5-1.9-2.4-3.3-5.3-3.8-7.5-0.5-2.2-0.4-3.8 0.1-4.9 0.4-1 1.1-1.4 1.6-1.7 0.5-0.3 1-0.4 1.5-0.4 0.5 0 1 0.1 1.6 0.3 0.6 0.2 1 0.3 1.4 0.5 0.4 0.2 0.9 0.5 1.4 0.9 0.5 0.4 0.8 0.7 1.2 1 0.3 0.3 0.6 0.6 0.8 0.8 0.2 0.2 0.4 0.5 0.4 0.8 0.1 0.4 0.1 0.8 0.1 1.1 0 0.3-0.1 0.7-0.3 1-0.2 0.3-0.5 0.6-0.9 0.9-0.3 0.3-0.8 0.5-1.3 0.7-0.5 0.2-1.1 0.3-1.6 0.3z" fill="#fff"/>
</svg>