<svg xmlns="http://www.w3.org/2000/svg" viewBox="0 0 64 64">
  <rect width="64" height="64" rx="14" fill="#25D366"/>
  <path d="M40.8 23.5c-0.5-0.1-1.1-0.2-1.6-0.2-0.4 0-0.9 0-1.3 0.1-0.3 0-0.8 0.1-1.1 0.5-0.3 0.3-1.3 1.5-1.5 1.8-0.3 0.4-0.6 0.4-1.1 0.1-0.6-0.3-2.3-0.9-4.4-2.7-1.6-1.4-2.7-3-3-3.5-0.3-0.5-0.1-0.8 0.2-1.1 0.2-0.2 0.5-0.7 0.7-1.1 0.2-0.4 0.1-0.7 0-1-0.1-0.3-1.1-2.6-1.5-3.5-0.4-0.9-0.9-0.8-1.2-0.8-0.3 0-0.7 0-1.1 0-0.4 0-1.1 0.2-1.7 0.8-0.6 0.6-2.1 2-2.1 4.9 0 2.9 2.2 5.8 2.5 6.2 0.3 0.4 4.4 6.8 10.8 9.5 1.5 0.7 2.6 1.1 3.5 1.4 1.5 0.5 2.8 0.4 3.8 0.2 1.2-0.3 3.6-1.5 4.1-2.9 0.5-1.4 0.5-2.6 0.3-2.9-0.2-0.3-0.8-0.4-1.7-0.8-0.9-0.4-5.3-2.1-5.8-2.3z" fill="#fff"/>
</svg>